<svg version="1.1" xmlns="http://www.w3.org/2000/svg" viewBox="0 0 581.1223854202115 513.2185579453011" width="1743.3671562606344" height="1539.6556738359031" filter="invert(93%) hue-rotate(180deg)">
  <!-- svg-source:excalidraw -->
  
  <defs>
    <style class="style-fonts">
      @font-face {
        font-family: "Virgil";
        src: url("https://excalidraw.com/Virgil.woff2");
      }
      @font-face {
        font-family: "Cascadia";
        src: url("https://excalidraw.com/Cascadia.woff2");
      }
      @font-face {
        font-family: "Assistant";
        src: url("https://excalidraw.com/Assistant-Regular.woff2");
      }
    </style>
    
  </defs>
  <g stroke-linecap="round"><g transform="translate(63.618924047053724 72.9587694273946) rotate(0 0 215.225713065933)"><path d="M-0.1 1.02 C-0.28 72.75, -0.62 357.9, -0.71 429.32 M-1.61 0.51 C-1.43 72.44, 1.65 358.61, 1.63 430.26" stroke="#1e1e1e" stroke-width="1" fill="none"></path></g></g><mask></mask><g stroke-linecap="round"><g transform="translate(518.0216043976994 76.47741067051402) rotate(0 0 211.98573515672172)"><path d="M-0.84 1.03 C-0.81 71.51, 0.65 353.35, 0.61 423.86 M0.92 0.53 C0.81 71.73, -0.07 354.51, -0.02 425.35" stroke="#1e1e1e" stroke-width="1" fill="none"></path></g></g><mask></mask><g transform="translate(467.34270979526013 10) rotate(0 50.0537109375 23)"><text x="50.0537109375" y="0" font-family="Helvetica, Segoe UI Emoji" font-size="20px" fill="#1e1e1e" text-anchor="middle" style="white-space: pre;" direction="ltr" dominant-baseline="text-before-edge">Команда</text><text x="50.0537109375" y="23" font-family="Helvetica, Segoe UI Emoji" font-size="20px" fill="#1e1e1e" text-anchor="middle" style="white-space: pre;" direction="ltr" dominant-baseline="text-before-edge">Выживших</text></g><g transform="translate(13.693025146010768 10.603916933707751) rotate(0 49.736328125 23)"><text x="49.736328125" y="0" font-family="Helvetica, Segoe UI Emoji" font-size="20px" fill="#1e1e1e" text-anchor="middle" style="white-space: pre;" direction="ltr" dominant-baseline="text-before-edge">Команда</text><text x="49.736328125" y="23" font-family="Helvetica, Segoe UI Emoji" font-size="20px" fill="#1e1e1e" text-anchor="middle" style="white-space: pre;" direction="ltr" dominant-baseline="text-before-edge">Изгнанных</text></g><g stroke-linecap="round"><g transform="translate(62.89200490327812 175.70416417018032) rotate(0 225.94970001257218 0)"><path d="M1.2 0.41 C76.29 0.33, 376.02 -0.79, 450.98 -0.94 M0.37 -0.43 C75.8 -0.34, 377.72 -0.06, 453.22 0.1" stroke="#1e1e1e" stroke-width="1" fill="none"></path></g><g transform="translate(62.89200490327812 175.70416417018032) rotate(0 225.94970001257218 0)"><path d="M429.71 8.62 C438.29 4.01, 443.91 1.12, 453.22 0.1 M429.71 8.62 C435.7 6.16, 441.07 5.12, 453.22 0.1" stroke="#1e1e1e" stroke-width="1" fill="none"></path></g><g transform="translate(62.89200490327812 175.70416417018032) rotate(0 225.94970001257218 0)"><path d="M429.74 -8.48 C438.24 -7.37, 443.85 -4.54, 453.22 0.1 M429.74 -8.48 C435.8 -6.5, 441.16 -3.1, 453.22 0.1" stroke="#1e1e1e" stroke-width="1" fill="none"></path></g></g><mask></mask><g transform="translate(196.21095436522114 146.96811589850893) rotate(0 90.2490234375 11.5)"><text x="90.2490234375" y="0" font-family="Helvetica, Segoe UI Emoji" font-size="20px" fill="#1e1e1e" text-anchor="middle" style="white-space: pre;" direction="ltr" dominant-baseline="text-before-edge">Выбирают событие</text></g><g stroke-linecap="round"><g transform="translate(517.796178429224 260.3972477368284) rotate(0 -226.39231315853158 0)"><path d="M-0.72 -0.05 C-76.09 -0.12, -377.86 0.65, -453.23 0.59 M1.11 -1.12 C-74.38 -1.02, -378.6 -1.53, -454.41 -1.23" stroke="#1e1e1e" stroke-width="1" fill="none"></path></g><g transform="translate(517.796178429224 260.3972477368284) rotate(0 -226.39231315853158 0)"><path d="M-430.92 -9.8 C-436.08 -8.8, -440.16 -6.4, -454.41 -1.23 M-430.92 -9.8 C-437.31 -6.57, -443.22 -4.56, -454.41 -1.23" stroke="#1e1e1e" stroke-width="1" fill="none"></path></g><g transform="translate(517.796178429224 260.3972477368284) rotate(0 -226.39231315853158 0)"><path d="M-430.91 7.3 C-436.21 4.56, -440.3 3.21, -454.41 -1.23 M-430.91 7.3 C-437.23 6.01, -443.15 3.51, -454.41 -1.23" stroke="#1e1e1e" stroke-width="1" fill="none"></path></g></g><mask></mask><g transform="translate(143.91743731160545 230.6996314063049) rotate(0 143.9404296875 11.5)"><text x="143.9404296875" y="0" font-family="Helvetica, Segoe UI Emoji" font-size="20px" fill="#1e1e1e" text-anchor="middle" style="white-space: pre;" direction="ltr" dominant-baseline="text-before-edge">Решают как с ним справляться</text></g><g stroke-linecap="round" transform="translate(11.163156462786219 107.41540565214905) rotate(0 279.9796144787126 105.18563093845012)"><path d="M32 0 C137.23 0.67, 242.01 -0.15, 527.96 0 M32 0 C177.37 0.37, 322.26 0.06, 527.96 0 M527.96 0 C549.23 0.6, 558.3 9.72, 559.96 32 M527.96 0 C549.26 1.05, 560.69 10.26, 559.96 32 M559.96 32 C558.64 63.92, 557.97 94.7, 559.96 178.37 M559.96 32 C558.87 73.83, 559.22 113.22, 559.96 178.37 M559.96 178.37 C559.53 200.96, 548.42 208.84, 527.96 210.37 M559.96 178.37 C557.86 199.08, 551.04 208.55, 527.96 210.37 M527.96 210.37 C371.9 208.05, 217.27 207.87, 32 210.37 M527.96 210.37 C393.84 208.37, 260.16 208.31, 32 210.37 M32 210.37 C10.28 211.36, 0.41 199.09, 0 178.37 M32 210.37 C12.24 209.7, -1.15 200.05, 0 178.37 M0 178.37 C-1.76 149.47, 0.96 118.54, 0 32 M0 178.37 C1.19 139.25, 0.52 98.14, 0 32 M0 32 C-0.7 10.61, 10.47 1.51, 32 0 M0 32 C1.31 12.39, 10.85 -1.75, 32 0" stroke="#1e1e1e" stroke-width="1" fill="none"></path></g><g stroke-linecap="round" transform="translate(10 356.8043874102267) rotate(0 278.2475550862916 53.828388603056624)"><path d="M26.91 0 C177.35 -0.39, 326.12 0.08, 529.58 0 M529.58 0 C547.05 0.09, 558.27 10.8, 556.5 26.91 M556.5 26.91 C558.48 42.59, 555.53 54.17, 556.5 80.74 M556.5 80.74 C555.25 98.23, 548.07 107.43, 529.58 107.66 M529.58 107.66 C374.4 108.94, 220.77 108.96, 26.91 107.66 M26.91 107.66 C6.99 108.77, -1.49 100.47, 0 80.74 M0 80.74 C-1.56 64.84, 0.14 50.55, 0 26.91 M0 26.91 C0.42 9.41, 9.68 1.05, 26.91 0" stroke="#1e1e1e" stroke-width="1.5" fill="none" stroke-dasharray="8 9"></path></g><g transform="translate(96.77044313613737 386.58707081458704) rotate(0 192.67578125 23)"><text x="192.67578125" y="0" font-family="Helvetica, Segoe UI Emoji" font-size="20px" fill="#1e1e1e" text-anchor="middle" style="white-space: pre;" direction="ltr" dominant-baseline="text-before-edge">Расчет последствий и подведение итогов</text><text x="192.67578125" y="23" font-family="Helvetica, Segoe UI Emoji" font-size="20px" fill="#1e1e1e" text-anchor="middle" style="white-space: pre;" direction="ltr" dominant-baseline="text-before-edge"> за прошедший месяц</text></g></svg>